<?xml version="1.0" encoding="UTF-8" standalone="no"?>
<!DOCTYPE svg PUBLIC "-//W3C//DTD SVG 1.1//EN" "http://www.w3.org/Graphics/SVG/1.1/DTD/svg11.dtd">
<svg xmlns="http://www.w3.org/2000/svg" version="1.1" viewBox="0.00 0.00 1024.00 1024.00">
<path fill="#000000" d="
  M 511.92 260.00
  L 538.75 260.01
  L 544.06 260.07
  L 548.83 260.40
  L 553.24 261.03
  L 557.52 261.98
  L 558.98 262.38
  L 564.53 264.23
  L 569.91 266.50
  L 575.22 269.20
  L 580.33 272.27
  L 585.32 275.78
  L 590.07 279.62
  L 594.64 283.86
  L 598.91 288.39
  L 602.89 293.22
  L 606.55 298.30
  L 609.86 303.60
  L 612.81 309.10
  L 615.36 314.73
  L 617.52 320.51
  L 619.23 326.31
  L 620.53 332.20
  L 621.16 336.62
  L 621.51 341.37
  L 621.56 346.45
  L 621.33 351.87
  L 620.30 362.74
  L 618.70 373.35
  L 616.51 383.77
  L 613.76 393.84
  L 610.46 403.52
  L 606.64 412.78
  L 602.26 421.68
  L 597.38 430.08
  L 592.14 437.80
  L 585.30 446.81
  L 567.69 469.44
  L 554.36 487.38
  L 547.91 496.95
  L 542.13 506.77
  L 537.01 516.86
  L 532.56 527.21
  L 532.56 527.21
  L 532.56 527.21
  L 529.31 536.14
  L 526.54 545.26
  L 526.13 546.21
  L 525.52 546.88
  L 524.62 547.29
  L 523.49 547.37
  L 511.62 547.10
  L 499.76 547.35
  L 498.62 547.26
  L 497.72 546.85
  L 497.72 546.85
  L 497.72 546.85
  L 497.11 546.18
  L 496.71 545.23
  L 493.95 536.11
  L 490.73 527.17
  L 490.73 527.17
  L 486.29 516.81
  L 481.19 506.71
  L 475.43 496.87
  L 469.00 487.29
  L 455.71 469.33
  L 438.15 446.66
  L 431.33 437.64
  L 426.10 429.90
  L 421.24 421.49
  L 416.88 412.58
  L 413.08 403.32
  L 409.80 393.63
  L 407.07 383.56
  L 404.90 373.13
  L 403.32 362.52
  L 402.31 351.65
  L 402.09 346.23
  L 402.16 341.14
  L 402.51 336.39
  L 403.15 331.98
  L 404.46 326.09
  L 406.19 320.30
  L 408.36 314.52
  L 410.92 308.89
  L 413.88 303.40
  L 417.20 298.10
  L 420.87 293.03
  L 424.86 288.22
  L 429.15 283.69
  L 433.72 279.46
  L 438.48 275.62
  L 443.48 272.13
  L 448.59 269.07
  L 453.90 266.38
  L 459.30 264.13
  L 464.85 262.28
  L 466.30 261.88
  L 470.58 260.94
  L 475.00 260.33
  L 479.77 260.00
  L 485.08 259.95
  L 511.92 260.00
  Z
  M 420.47 353.75
  L 421.33 361.31
  L 422.43 368.67
  L 423.75 375.71
  L 425.31 382.51
  L 427.11 389.05
  L 429.13 395.30
  L 431.37 401.21
  L 433.82 406.79
  L 436.50 412.08
  L 439.36 416.99
  L 442.50 421.69
  L 445.80 425.99
  L 449.35 430.02
  L 453.05 433.65
  L 456.97 436.98
  L 461.17 440.04
  L 467.87 444.19
  L 474.74 447.77
  L 481.78 450.77
  L 488.99 453.19
  L 488.99 453.19
  L 488.99 453.19
  L 495.64 454.89
  L 502.43 456.12
  L 509.28 456.80
  L 515.50 456.76
  L 520.45 456.30
  L 525.37 455.58
  L 530.24 454.60
  L 535.06 453.38
  L 539.78 451.90
  L 544.42 450.18
  L 548.86 448.25
  L 553.18 446.09
  L 557.33 443.71
  L 561.34 441.10
  L 565.11 438.33
  L 568.72 435.34
  L 572.07 432.21
  L 575.23 428.87
  L 578.14 425.40
  L 580.84 421.74
  L 585.09 415.19
  L 588.72 408.74
  L 591.73 402.38
  L 594.12 396.11
  L 597.77 383.99
  L 599.28 377.92
  L 600.61 371.80
  L 601.71 365.76
  L 602.62 359.69
  L 603.30 353.70
  L 603.78 347.71
  L 603.91 343.66
  L 603.78 339.85
  L 603.38 336.29
  L 602.72 332.98
  L 601.01 326.90
  L 598.98 321.22
  L 596.62 315.94
  L 593.94 311.06
  L 593.39 310.16
  L 593.39 310.16
  L 593.39 310.16
  L 590.97 306.56
  L 588.32 303.11
  L 585.44 299.80
  L 582.33 296.63
  L 578.99 293.61
  L 575.42 290.73
  L 571.62 288.00
  L 567.59 285.41
  L 564.73 283.79
  L 561.82 282.37
  L 558.84 281.14
  L 555.80 280.10
  L 555.80 280.10
  L 555.80 280.10
  L 551.93 279.09
  L 547.97 278.37
  L 543.91 277.96
  L 539.76 277.86
  L 483.24 277.96
  L 476.61 278.29
  L 470.32 279.30
  L 464.39 281.01
  L 458.81 283.41
  L 458.81 283.41
  L 458.81 283.41
  L 455.75 285.11
  L 452.80 287.04
  L 448.28 290.38
  L 444.27 293.66
  L 440.77 296.88
  L 437.68 300.14
  L 433.16 305.76
  L 429.31 311.62
  L 426.13 317.69
  L 423.62 324.00
  L 423.62 324.00
  L 423.62 324.00
  L 423.62 324.00
  L 422.55 327.49
  L 421.67 331.04
  L 420.99 334.66
  L 420.49 338.35
  L 420.09 345.92
  L 420.47 353.75
  Z
  M 511.63 478.91
  L 501.45 478.71
  L 490.24 478.06
  L 487.22 477.96
  L 484.70 478.17
  L 484.47 478.32
  L 484.45 478.59
  L 484.45 478.59
  L 484.48 478.65
  L 486.31 481.40
  L 493.91 493.07
  L 498.94 501.87
  L 498.96 501.91
  L 498.96 501.91
  L 498.96 501.91
  L 502.53 509.17
  L 505.81 516.56
  L 508.82 524.10
  L 511.55 531.78
  L 511.68 531.93
  L 511.73 531.94
  L 511.79 531.95
  L 511.85 531.94
  L 511.90 531.93
  L 512.03 531.78
  L 514.71 524.08
  L 517.68 516.53
  L 520.92 509.11
  L 524.44 501.84
  L 524.44 501.84
  L 524.46 501.79
  L 529.44 492.97
  L 536.97 481.25
  L 538.78 478.49
  L 538.81 478.43
  L 538.79 478.16
  L 538.56 478.01
  L 536.04 477.82
  L 533.02 477.93
  L 521.82 478.65
  L 511.63 478.91
  Z"
/>
<circle fill="#000000" cx="468.17" cy="298.47" r="7.07"/>
<ellipse fill="#000000" cx="0.00" cy="0.00" transform="translate(512.00,298.59) rotate(-89.3)" rx="7.25" ry="6.98"/>
<ellipse fill="#000000" cx="0.00" cy="0.00" transform="translate(533.86,298.59) rotate(-107.1)" rx="7.24" ry="7.08"/>
<ellipse fill="#000000" cx="0.00" cy="0.00" transform="translate(555.94,298.60) rotate(-80.4)" rx="7.23" ry="7.04"/>
<circle fill="#000000" cx="490.18" cy="298.75" r="7.05"/>
<circle fill="#000000" cx="446.21" cy="321.00" r="7.07"/>
<circle fill="#000000" cx="468.40" cy="321.10" r="7.22"/>
<circle fill="#000000" cx="490.16" cy="320.99" r="7.10"/>
<ellipse fill="#000000" cx="0.00" cy="0.00" transform="translate(511.92,320.96) rotate(-51.8)" rx="7.28" ry="6.96"/>
<circle fill="#000000" cx="555.78" cy="321.00" r="7.07"/>
<ellipse fill="#000000" cx="0.00" cy="0.00" transform="translate(577.44,321.10) rotate(-93.6)" rx="7.23" ry="6.89"/>
<circle fill="#000000" cx="533.75" cy="321.06" r="7.05"/>
<circle fill="#000000" cx="446.04" cy="343.33" r="7.10"/>
<circle fill="#000000" cx="490.29" cy="343.22" r="7.03"/>
<ellipse fill="#000000" cx="0.00" cy="0.00" transform="translate(511.88,343.31) rotate(-16.2)" rx="7.16" ry="7.03"/>
<ellipse fill="#000000" cx="0.00" cy="0.00" transform="translate(533.75,343.50) rotate(-65.3)" rx="7.33" ry="7.19"/>
<circle fill="#000000" cx="555.89" cy="343.34" r="7.13"/>
<circle fill="#000000" cx="468.21" cy="343.58" r="7.23"/>
<ellipse fill="#000000" cx="0.00" cy="0.00" transform="translate(577.46,343.25) rotate(-176.3)" rx="7.25" ry="6.93"/>
<circle fill="#000000" cx="446.00" cy="365.70" r="6.99"/>
<circle fill="#000000" cx="468.44" cy="365.94" r="7.12"/>
<circle fill="#000000" cx="490.41" cy="365.67" r="6.94"/>
<circle fill="#000000" cx="512.00" cy="365.88" r="7.12"/>
<circle fill="#000000" cx="533.91" cy="365.89" r="7.13"/>
<circle fill="#000000" cx="555.89" cy="365.92" r="7.14"/>
<ellipse fill="#000000" cx="0.00" cy="0.00" transform="translate(577.26,365.91) rotate(-88.2)" rx="7.15" ry="6.99"/>
<circle fill="#000000" cx="511.92" cy="388.43" r="7.08"/>
<circle fill="#000000" cx="555.75" cy="388.54" r="7.03"/>
<ellipse fill="#000000" cx="0.00" cy="0.00" transform="translate(577.08,388.25) rotate(-7.1)" rx="6.90" ry="6.78"/>
<ellipse fill="#000000" cx="0.00" cy="0.00" transform="translate(533.90,388.59) rotate(-7.6)" rx="7.30" ry="7.02"/>
<circle fill="#000000" cx="474.09" cy="405.68" r="22.03"/>
<circle fill="#000000" cx="512.08" cy="411.06" r="7.03"/>
<circle fill="#000000" cx="533.82" cy="411.03" r="7.15"/>
<circle fill="#000000" cx="555.91" cy="410.73" r="7.07"/>
<circle fill="#000000" cx="533.82" cy="433.51" r="7.09"/>
<ellipse fill="#000000" cx="0.00" cy="0.00" transform="translate(511.80,433.55) rotate(-146.5)" rx="7.08" ry="6.78"/>
<path fill="#000000" d="
  M 511.71 557.95
  L 524.22 557.98
  L 524.98 558.29
  L 525.31 559.04
  L 526.68 587.29
  L 528.56 614.74
  L 529.42 620.21
  L 531.18 626.33
  L 531.99 629.23
  L 532.10 631.19
  L 531.55 633.10
  L 530.53 634.82
  L 529.13 636.13
  L 527.57 636.85
  L 526.25 637.03
  L 511.69 637.13
  L 497.14 637.03
  L 495.82 636.84
  L 494.25 636.12
  L 492.85 634.81
  L 491.83 633.09
  L 491.29 631.18
  L 491.40 629.22
  L 492.21 626.32
  L 493.97 620.21
  L 494.83 614.73
  L 496.72 587.28
  L 498.11 559.03
  L 498.44 558.29
  L 499.20 557.98
  L 511.71 557.95
  Z"
/>
<path fill="#000000" d="
  M 481.02 723.26
  L 480.86 723.75
  L 480.40 723.98
  L 480.37 723.98
  L 464.93 723.98
  L 463.79 723.63
  L 463.05 722.69
  L 458.39 710.82
  L 457.94 710.39
  L 456.50 710.08
  L 454.50 709.95
  L 436.00 709.88
  L 433.59 710.05
  L 431.88 710.46
  L 431.35 710.98
  L 426.75 722.73
  L 426.04 723.62
  L 424.95 723.96
  L 409.70 723.96
  L 409.67 723.96
  L 409.06 723.68
  L 408.84 723.04
  L 409.26 721.00
  L 415.60 705.56
  L 424.85 682.78
  L 429.22 671.51
  L 432.54 663.12
  L 436.28 654.33
  L 437.15 653.30
  L 438.44 652.92
  L 452.85 652.92
  L 453.85 653.23
  L 454.50 654.05
  L 475.44 707.03
  L 480.42 720.56
  L 481.02 723.26
  Z
  M 438.16 693.62
  L 438.09 693.98
  L 438.42 694.80
  L 439.23 695.13
  L 450.92 695.03
  L 451.44 694.90
  L 451.84 694.55
  L 452.03 694.05
  L 451.98 693.52
  L 451.97 693.50
  L 445.99 677.79
  L 445.75 677.41
  L 445.26 677.11
  L 444.70 677.09
  L 444.19 677.34
  L 443.87 677.81
  L 438.16 693.62
  Z"
/>
<path fill="#000000" d="
  M 356.51 724.00
  L 356.15 723.85
  L 356.00 723.49
  L 356.00 653.89
  L 356.25 653.29
  L 356.86 653.03
  L 381.60 652.93
  L 387.65 653.18
  L 392.80 653.92
  L 397.30 655.20
  L 401.37 657.07
  L 403.53 658.43
  L 405.63 660.04
  L 408.39 662.78
  L 410.52 665.88
  L 411.91 669.04
  L 412.79 672.61
  L 413.17 676.72
  L 413.07 681.52
  L 412.79 683.98
  L 412.26 686.34
  L 411.48 688.66
  L 410.46 690.84
  L 409.07 693.09
  L 407.42 695.15
  L 405.55 697.01
  L 403.46 698.65
  L 401.18 700.06
  L 398.73 701.24
  L 396.11 702.17
  L 393.36 702.83
  L 388.96 703.51
  L 384.45 703.92
  L 379.82 704.06
  L 375.08 703.93
  L 375.05 703.93
  L 374.31 704.22
  L 374.00 704.96
  L 374.00 723.02
  L 373.71 723.71
  L 373.02 724.00
  L 356.51 724.00
  Z
  M 373.96 670.15
  L 374.04 686.85
  L 374.34 687.62
  L 375.08 687.99
  L 375.08 687.99
  L 375.20 687.99
  L 386.58 687.93
  L 388.43 687.75
  L 390.20 687.21
  L 391.83 686.36
  L 393.26 685.21
  L 394.43 683.81
  L 395.30 682.22
  L 395.83 680.49
  L 396.00 678.70
  L 396.00 678.70
  L 396.00 678.06
  L 396.00 678.06
  L 395.81 676.27
  L 395.26 674.55
  L 394.38 672.97
  L 393.19 671.59
  L 391.75 670.45
  L 390.11 669.61
  L 388.33 669.10
  L 386.48 668.93
  L 375.10 668.99
  L 374.75 669.05
  L 374.17 669.47
  L 373.96 670.15
  Z"
/>
<path fill="#000000" d="
  M 485.05 654.10
  L 485.34 653.39
  L 486.05 653.10
  L 515.51 653.15
  L 518.68 653.30
  L 521.82 653.75
  L 524.90 654.49
  L 527.88 655.52
  L 530.75 656.82
  L 533.47 658.38
  L 536.02 660.19
  L 538.36 662.23
  L 540.49 664.47
  L 542.38 666.91
  L 544.00 669.51
  L 545.36 672.25
  L 546.42 675.10
  L 547.19 678.04
  L 547.65 681.04
  L 547.80 684.06
  L 547.80 684.06
  L 547.78 693.20
  L 547.78 693.20
  L 547.62 696.23
  L 547.15 699.22
  L 546.37 702.16
  L 545.30 705.01
  L 543.94 707.75
  L 542.30 710.34
  L 540.41 712.77
  L 538.27 715.01
  L 535.92 717.04
  L 533.36 718.84
  L 530.64 720.39
  L 527.77 721.68
  L 524.78 722.70
  L 521.70 723.43
  L 518.56 723.87
  L 515.39 724.01
  L 485.93 723.96
  L 485.33 723.76
  L 485.03 723.40
  L 484.93 722.96
  L 485.05 654.10
  Z
  M 503.02 670.40
  L 502.90 706.76
  L 503.00 707.29
  L 503.30 707.73
  L 503.30 707.73
  L 503.74 708.03
  L 504.26 708.14
  L 514.53 708.17
  L 517.57 707.89
  L 520.49 707.03
  L 523.19 705.62
  L 525.55 703.73
  L 527.49 701.42
  L 528.94 698.78
  L 529.84 695.91
  L 530.15 692.93
  L 530.17 684.43
  L 530.17 684.43
  L 529.89 681.44
  L 529.01 678.57
  L 527.58 675.92
  L 525.66 673.59
  L 523.30 671.68
  L 520.62 670.26
  L 517.70 669.38
  L 514.67 669.07
  L 504.40 669.04
  L 503.87 669.14
  L 503.43 669.44
  L 503.13 669.88
  L 503.02 670.40
  Z"
/>
<path fill="#000000" d="
  M 604.00 695.49
  L 603.85 695.84
  L 603.50 695.99
  L 574.71 695.99
  L 574.20 696.20
  L 573.99 696.71
  L 573.99 706.84
  L 574.33 707.65
  L 575.15 707.99
  L 607.01 707.98
  L 608.31 708.12
  L 609.23 708.64
  L 609.23 708.64
  L 609.74 709.48
  L 609.93 710.66
  L 610.04 723.07
  L 609.77 723.71
  L 609.12 723.98
  L 557.87 723.98
  L 557.28 723.73
  L 557.03 723.13
  L 557.03 654.02
  L 557.33 653.31
  L 558.04 653.01
  L 608.21 653.01
  L 608.73 653.23
  L 608.95 653.75
  L 608.95 668.04
  L 608.66 668.73
  L 607.97 669.02
  L 574.68 669.02
  L 574.68 669.02
  L 574.21 669.22
  L 574.01 669.70
  L 574.01 680.34
  L 574.01 680.35
  L 574.26 680.94
  L 574.86 681.17
  L 602.66 680.26
  L 603.17 680.35
  L 603.60 680.62
  L 603.89 681.04
  L 604.00 681.54
  L 604.00 681.56
  L 604.00 695.49
  Z"
/>
<path fill="#000000" d="
  M 667.18 723.99
  L 618.85 723.99
  L 618.26 723.74
  L 618.01 723.15
  L 618.01 653.85
  L 618.12 653.43
  L 618.43 653.12
  L 618.85 653.01
  L 634.15 653.01
  L 634.74 653.26
  L 634.99 653.85
  L 634.99 707.17
  L 635.24 707.76
  L 635.83 708.01
  L 667.18 708.01
  L 667.77 708.26
  L 668.02 708.85
  L 668.02 723.15
  L 667.77 723.74
  L 667.18 723.99
  Z"
/>
<path fill="#000000" d="
  M 408.94 750.14
  L 408.67 752.85
  L 407.88 755.46
  L 406.60 757.87
  L 404.87 759.98
  L 402.76 761.71
  L 400.35 762.99
  L 397.74 763.78
  L 395.03 764.05
  L 392.32 763.78
  L 389.71 762.99
  L 387.30 761.71
  L 385.19 759.98
  L 383.46 757.87
  L 382.18 755.46
  L 381.39 752.85
  L 381.12 750.14
  L 381.39 747.43
  L 382.18 744.82
  L 383.46 742.41
  L 385.19 740.30
  L 387.30 738.57
  L 389.71 737.29
  L 392.32 736.50
  L 395.03 736.23
  L 397.74 736.50
  L 400.35 737.29
  L 402.76 738.57
  L 404.87 740.30
  L 406.60 742.41
  L 407.88 744.82
  L 408.67 747.43
  L 408.94 750.14
  Z
  M 392.9707 740.2828
  L 391.1484 740.8612
  L 389.4752 741.7961
  L 388.0154 743.0518
  L 386.8253 744.5798
  L 385.9504 746.3215
  L 385.4245 748.2099
  L 385.2677 750.1725
  L 385.4860 752.1338
  L 386.0712 754.0186
  L 387.0006 755.7542
  L 388.2386 757.2742
  L 389.7375 758.5199
  L 391.4399 759.4437
  L 393.2802 760.0099
  L 395.1878 760.1968
  L 397.0893 759.9972
  L 398.9116 759.4188
  L 400.5848 758.4839
  L 402.0446 757.2282
  L 403.2347 755.7002
  L 404.1096 753.9585
  L 404.6355 752.0701
  L 404.7923 750.1075
  L 404.5740 748.1462
  L 403.9888 746.2614
  L 403.0594 744.5258
  L 401.8214 743.0058
  L 400.3225 741.7601
  L 398.6201 740.8363
  L 396.7798 740.2701
  L 394.8722 740.0832
  L 392.9707 740.2828
  Z"
/>
<path fill="#000000" d="
  M 476.01 744.32
  L 475.85 744.20
  L 475.36 744.22
  L 475.10 744.64
  L 474.95 752.46
  L 475.48 760.19
  L 475.56 760.91
  L 475.53 761.67
  L 475.28 762.39
  L 474.81 763.00
  L 474.19 763.44
  L 474.01 763.52
  L 473.49 763.65
  L 472.96 763.55
  L 472.52 763.23
  L 472.25 762.77
  L 472.21 762.57
  L 471.82 757.00
  L 471.27 749.52
  L 470.95 744.84
  L 471.14 739.58
  L 471.39 738.34
  L 471.94 737.32
  L 471.94 737.32
  L 472.58 736.67
  L 473.41 736.16
  L 473.99 736.06
  L 474.54 736.26
  L 476.25 737.61
  L 477.32 738.74
  L 490.36 755.83
  L 490.61 755.93
  L 490.83 755.78
  L 490.86 755.66
  L 491.27 737.61
  L 491.38 737.07
  L 491.68 736.62
  L 492.50 736.12
  L 492.50 736.12
  L 493.19 736.06
  L 493.94 736.25
  L 494.35 736.55
  L 494.57 737.01
  L 494.94 739.54
  L 495.06 742.00
  L 494.91 761.47
  L 494.66 762.86
  L 493.92 763.80
  L 492.93 764.11
  L 491.82 763.92
  L 490.75 763.31
  L 489.88 762.37
  L 486.57 757.55
  L 483.16 752.94
  L 479.64 748.53
  L 476.01 744.32
  Z"
/>
<path fill="#000000" d="
  M 505.84 756.98
  L 505.47 758.19
  L 504.83 760.25
  L 504.14 761.73
  L 503.25 762.83
  L 502.25 763.48
  L 501.81 763.63
  L 501.55 763.67
  L 500.96 763.56
  L 500.48 763.18
  L 500.18 762.62
  L 500.13 761.97
  L 500.59 759.76
  L 501.40 757.38
  L 505.51 747.44
  L 509.91 737.56
  L 510.43 736.83
  L 511.18 736.35
  L 512.06 736.18
  L 512.94 736.35
  L 514.44 737.20
  L 515.28 738.01
  L 515.95 738.93
  L 517.31 741.79
  L 517.71 742.74
  L 525.61 761.39
  L 525.78 762.13
  L 525.64 762.88
  L 525.21 763.51
  L 524.58 763.92
  L 524.48 763.95
  L 524.37 763.99
  L 523.65 764.10
  L 522.94 763.94
  L 522.33 763.53
  L 521.90 762.94
  L 519.76 758.40
  L 518.86 757.38
  L 517.54 757.00
  L 510.18 756.94
  L 508.23 756.52
  L 506.71 756.24
  L 506.18 756.50
  L 505.84 756.98
  Z
  M 511.76 742.46
  L 508.08 751.85
  L 508.08 751.86
  L 508.10 752.42
  L 508.51 752.79
  L 510.57 753.04
  L 514.79 753.09
  L 516.14 752.97
  L 516.76 752.63
  L 517.04 751.61
  L 516.81 750.57
  L 512.67 742.42
  L 512.29 742.15
  L 511.85 742.31
  L 511.76 742.46
  Z"
/>
<path fill="#000000" d="
  M 664.16 742.51
  L 661.15 741.14
  L 659.67 740.55
  L 657.98 740.11
  L 656.34 739.89
  L 654.69 739.87
  L 653.33 740.06
  L 652.07 740.45
  L 651.05 741.03
  L 650.18 741.82
  L 649.53 742.80
  L 649.10 744.02
  L 649.12 744.57
  L 649.41 745.03
  L 651.53 746.77
  L 652.87 747.46
  L 653.83 747.62
  L 658.93 748.58
  L 662.49 749.77
  L 663.82 750.48
  L 664.98 751.33
  L 665.86 752.26
  L 666.52 753.34
  L 667.05 755.25
  L 666.98 757.34
  L 666.26 759.81
  L 665.67 760.82
  L 664.94 761.66
  L 663.53 762.66
  L 661.44 763.47
  L 658.93 763.99
  L 656.17 764.21
  L 653.34 764.10
  L 650.79 763.68
  L 648.64 762.99
  L 646.86 762.05
  L 645.45 760.82
  L 645.34 760.69
  L 645.02 759.94
  L 644.99 759.13
  L 645.24 758.25
  L 645.74 757.54
  L 646.24 757.21
  L 646.82 757.11
  L 647.41 757.23
  L 647.91 757.57
  L 649.65 758.99
  L 651.56 759.88
  L 651.61 759.89
  L 654.01 760.54
  L 655.91 760.85
  L 657.63 760.84
  L 659.09 760.52
  L 660.69 759.72
  L 662.26 758.36
  L 662.78 757.57
  L 662.99 756.65
  L 662.87 755.71
  L 662.43 754.88
  L 662.03 754.42
  L 660.99 753.59
  L 659.57 752.91
  L 655.26 751.89
  L 651.78 751.19
  L 649.37 750.29
  L 647.25 748.80
  L 645.80 746.95
  L 645.14 744.92
  L 645.13 743.71
  L 645.39 742.42
  L 646.25 740.46
  L 647.43 738.89
  L 648.99 737.61
  L 650.80 736.71
  L 652.86 736.15
  L 655.25 735.94
  L 657.88 736.11
  L 660.48 736.65
  L 663.03 737.54
  L 665.30 738.71
  L 665.78 739.13
  L 666.08 739.69
  L 666.18 740.32
  L 666.05 740.94
  L 665.67 741.90
  L 665.66 741.93
  L 665.03 742.53
  L 664.16 742.51
  Z"
/>
<path fill="#000000" d="
  M 416.09 736.40
  L 416.12 736.40
  L 416.89 736.74
  L 417.51 737.32
  L 417.91 738.06
  L 418.04 738.90
  L 418.05 751.98
  L 418.44 755.08
  L 418.89 756.48
  L 419.53 757.78
  L 419.53 757.78
  L 419.71 758.09
  L 420.40 758.75
  L 421.87 759.39
  L 423.59 759.86
  L 425.31 760.10
  L 427.07 760.10
  L 428.52 759.88
  L 429.87 759.43
  L 430.96 758.79
  L 431.86 757.91
  L 432.69 756.39
  L 432.95 750.97
  L 433.09 738.55
  L 433.32 737.69
  L 433.95 737.07
  L 435.08 736.41
  L 435.36 736.29
  L 435.90 736.27
  L 436.39 736.49
  L 436.74 736.91
  L 436.87 737.43
  L 436.99 749.55
  L 436.79 756.52
  L 436.48 758.05
  L 435.83 759.42
  L 434.89 760.60
  L 433.62 761.69
  L 432.13 762.58
  L 430.26 763.35
  L 428.29 763.87
  L 426.21 764.16
  L 424.26 764.17
  L 422.07 763.82
  L 420.09 763.07
  L 420.09 763.07
  L 420.09 763.07
  L 418.82 762.31
  L 417.64 761.36
  L 415.59 758.87
  L 414.91 757.45
  L 414.42 755.63
  L 414.14 753.42
  L 414.05 750.80
  L 414.11 737.92
  L 414.12 737.72
  L 414.35 737.10
  L 414.81 736.62
  L 415.42 736.37
  L 416.09 736.40
  Z"
/>
<path fill="#000000" d="
  M 553.24 743.49
  L 547.31 753.05
  L 546.39 754.19
  L 544.70 755.76
  L 544.11 756.08
  L 543.45 756.15
  L 542.81 755.95
  L 542.31 755.50
  L 542.25 755.42
  L 534.87 744.28
  L 534.71 744.14
  L 534.28 744.15
  L 534.07 744.52
  L 533.94 761.73
  L 533.81 762.45
  L 533.44 763.09
  L 532.87 763.56
  L 532.18 763.80
  L 532.09 763.82
  L 531.32 763.71
  L 530.66 763.32
  L 530.20 762.70
  L 530.02 761.95
  L 530.02 761.95
  L 530.02 761.89
  L 529.92 738.64
  L 529.95 738.28
  L 530.30 737.36
  L 531.01 736.68
  L 531.94 736.36
  L 532.92 736.45
  L 534.16 737.00
  L 535.81 738.38
  L 537.33 740.58
  L 540.79 746.24
  L 543.89 750.60
  L 544.21 750.76
  L 544.53 750.62
  L 544.58 750.55
  L 549.90 741.16
  L 551.46 738.96
  L 553.14 737.21
  L 554.55 736.34
  L 555.70 736.28
  L 556.01 736.43
  L 557.19 737.55
  L 557.75 738.73
  L 557.95 740.16
  L 558.03 752.14
  L 557.87 762.34
  L 557.73 762.97
  L 557.36 763.50
  L 556.82 763.86
  L 556.18 763.98
  L 555.23 763.98
  L 554.39 763.63
  L 554.04 762.79
  L 554.04 743.72
  L 553.99 743.51
  L 553.62 743.29
  L 553.24 743.49
  Z"
/>
<path fill="#000000" d="
  M 595.45 744.49
  L 595.00 745.74
  L 594.89 747.26
  L 594.99 761.85
  L 594.83 762.61
  L 594.40 763.24
  L 593.76 763.67
  L 593.00 763.82
  L 592.58 763.82
  L 591.99 763.70
  L 591.50 763.37
  L 591.17 762.88
  L 591.05 762.29
  L 591.05 738.50
  L 591.19 737.76
  L 591.58 737.11
  L 592.18 736.65
  L 592.91 736.43
  L 593.04 736.42
  L 594.03 736.52
  L 594.92 736.90
  L 595.78 737.52
  L 596.60 738.41
  L 609.68 755.86
  L 609.86 756.00
  L 610.30 755.95
  L 610.48 755.54
  L 610.34 751.84
  L 610.66 747.99
  L 610.68 744.78
  L 610.11 739.62
  L 610.14 738.80
  L 610.44 738.04
  L 610.98 737.43
  L 611.70 737.03
  L 612.09 736.90
  L 612.31 736.84
  L 612.93 736.87
  L 613.48 737.16
  L 613.86 737.65
  L 614.00 738.25
  L 614.10 757.71
  L 614.26 759.69
  L 614.39 761.63
  L 614.10 763.02
  L 613.82 763.56
  L 613.46 763.94
  L 612.99 764.16
  L 612.46 764.18
  L 611.98 763.99
  L 611.97 763.99
  L 609.45 762.03
  L 607.25 759.49
  L 603.89 754.69
  L 599.47 748.49
  L 596.07 744.41
  L 595.77 744.29
  L 595.48 744.44
  L 595.45 744.49
  Z"
/>
<path fill="#000000" d="
  M 628.08 740.98
  L 627.80 740.29
  L 627.11 740.01
  L 620.11 740.01
  L 619.61 739.89
  L 619.22 739.56
  L 619.02 739.09
  L 619.05 738.58
  L 619.05 738.58
  L 619.19 738.29
  L 619.66 737.59
  L 620.24 736.94
  L 620.97 736.47
  L 621.80 736.22
  L 622.66 736.21
  L 626.96 736.64
  L 631.06 736.84
  L 634.95 736.79
  L 638.64 736.51
  L 639.50 736.54
  L 640.32 736.81
  L 641.02 737.30
  L 641.56 737.98
  L 641.64 738.12
  L 641.73 738.30
  L 641.84 738.91
  L 641.68 739.52
  L 641.29 740.01
  L 640.73 740.30
  L 636.74 740.99
  L 632.92 740.91
  L 632.86 740.90
  L 632.21 741.14
  L 631.94 741.78
  L 632.20 761.66
  L 632.05 762.48
  L 631.59 763.19
  L 630.90 763.66
  L 630.07 763.83
  L 630.06 763.83
  L 629.67 763.83
  L 629.06 763.71
  L 628.55 763.36
  L 628.20 762.85
  L 628.08 762.24
  L 628.08 740.98
  Z"
/>
<path fill="#000000" d="
  M 379.04 737.94
  L 378.53 739.08
  L 377.28 740.22
  L 375.40 740.87
  L 372.94 740.95
  L 370.57 740.44
  L 370.10 740.37
  L 369.65 740.51
  L 369.30 740.82
  L 369.11 741.25
  L 369.09 741.44
  L 368.81 762.58
  L 368.68 763.18
  L 368.31 763.67
  L 367.78 763.96
  L 367.17 764.02
  L 367.17 764.02
  L 367.01 763.99
  L 366.90 763.97
  L 366.19 763.69
  L 365.61 763.19
  L 365.23 762.52
  L 365.09 761.77
  L 364.94 742.09
  L 364.94 742.04
  L 364.52 741.18
  L 363.61 740.88
  L 360.12 740.85
  L 357.00 740.16
  L 356.49 739.87
  L 356.13 739.43
  L 355.98 738.91
  L 356.07 738.40
  L 356.07 738.40
  L 356.12 738.30
  L 356.89 737.47
  L 357.96 737.17
  L 367.56 736.97
  L 378.37 737.06
  L 378.45 737.07
  L 378.94 737.37
  L 379.04 737.94
  Z"
/>
<path fill="#000000" d="
  M 460.43 754.26
  L 464.58 761.05
  L 464.82 761.68
  L 464.81 762.36
  L 464.54 762.99
  L 464.07 763.47
  L 463.97 763.54
  L 463.17 763.80
  L 462.32 763.74
  L 461.57 763.37
  L 461.00 762.74
  L 456.53 755.36
  L 456.03 754.75
  L 455.39 754.28
  L 454.66 754.00
  L 453.87 753.92
  L 448.86 754.09
  L 448.35 754.31
  L 448.13 754.83
  L 447.94 762.10
  L 447.94 762.13
  L 447.77 762.83
  L 447.34 763.40
  L 446.72 763.76
  L 446.01 763.86
  L 445.89 763.85
  L 445.18 763.70
  L 444.57 763.29
  L 444.17 762.68
  L 444.03 761.97
  L 444.06 737.90
  L 444.33 737.24
  L 444.99 736.96
  L 454.75 736.90
  L 458.04 737.03
  L 460.62 737.48
  L 462.63 738.29
  L 464.12 739.46
  L 464.95 740.56
  L 465.58 741.92
  L 465.97 743.47
  L 466.15 745.30
  L 466.03 747.18
  L 465.54 748.72
  L 464.83 749.86
  L 463.89 750.87
  L 460.68 753.16
  L 460.33 753.66
  L 460.43 754.26
  Z
  M 448.10 741.17
  L 447.98 748.79
  L 448.23 749.51
  L 448.87 749.90
  L 449.08 749.93
  L 457.28 750.06
  L 459.12 749.77
  L 460.68 748.88
  L 461.74 747.54
  L 462.13 745.95
  L 462.13 745.95
  L 462.15 744.45
  L 462.15 744.45
  L 461.81 742.85
  L 460.80 741.47
  L 459.26 740.54
  L 457.44 740.20
  L 449.24 740.07
  L 448.44 740.38
  L 448.10 741.17
  Z"
/>
<path fill="#000000" d="
  M 568.95 741.10
  L 568.95 746.84
  L 569.29 747.66
  L 570.11 748.00
  L 580.94 748.00
  L 581.74 748.22
  L 582.33 748.81
  L 583.28 750.45
  L 583.38 750.69
  L 583.39 751.15
  L 583.21 751.56
  L 582.85 751.85
  L 582.41 751.95
  L 570.02 751.95
  L 569.24 752.28
  L 568.91 753.06
  L 568.91 758.82
  L 569.25 759.65
  L 570.08 759.99
  L 583.90 759.99
  L 584.63 760.13
  L 585.24 760.55
  L 585.66 761.16
  L 585.80 761.89
  L 585.80 762.42
  L 585.68 763.00
  L 585.35 763.49
  L 584.86 763.82
  L 584.28 763.94
  L 566.82 763.94
  L 566.14 763.81
  L 565.57 763.42
  L 565.18 762.85
  L 565.05 762.17
  L 565.05 737.72
  L 565.27 737.20
  L 565.79 736.98
  L 584.05 736.98
  L 584.69 737.19
  L 585.04 737.58
  L 585.16 738.09
  L 585.16 738.83
  L 584.82 739.66
  L 583.99 740.01
  L 570.04 740.01
  L 569.89 740.02
  L 569.22 740.39
  L 568.95 741.10
  Z"
/>
</svg>
