<?xml version="1.0" encoding="UTF-8" standalone="no"?>
<!DOCTYPE svg PUBLIC "-//W3C//DTD SVG 1.1//EN" "http://www.w3.org/Graphics/SVG/1.1/DTD/svg11.dtd">
<svg xmlns="http://www.w3.org/2000/svg" version="1.1" viewBox="0.00 0.00 1024.00 1024.00">
<path fill="#ffffff" d="
  M 511.90 259.99
  L 538.26 259.81
  L 542.94 259.85
  L 547.54 260.18
  L 552.08 260.80
  L 556.54 261.72
  L 556.54 261.72
  L 562.38 263.41
  L 568.09 265.61
  L 573.68 268.33
  L 579.14 271.58
  L 582.85 274.11
  L 586.44 276.79
  L 589.89 279.63
  L 593.20 282.61
  L 596.34 285.70
  L 599.32 288.93
  L 602.16 292.29
  L 604.83 295.77
  L 607.29 299.31
  L 609.58 302.96
  L 611.70 306.73
  L 613.65 310.60
  L 615.39 314.53
  L 616.95 318.57
  L 618.28 322.60
  L 619.42 326.71
  L 620.30 330.56
  L 621.15 335.90
  L 621.58 341.67
  L 621.62 347.88
  L 621.24 354.51
  L 619.85 366.69
  L 617.75 378.53
  L 614.97 389.88
  L 611.50 400.79
  L 609.51 406.06
  L 607.34 411.26
  L 605.01 416.27
  L 602.50 421.20
  L 599.86 425.94
  L 597.03 430.59
  L 594.07 435.05
  L 590.92 439.41
  L 579.70 453.90
  L 568.66 468.09
  L 560.58 478.81
  L 553.68 488.44
  L 547.97 496.98
  L 544.69 502.33
  L 541.58 507.85
  L 538.66 513.54
  L 535.92 519.40
  L 533.35 525.43
  L 530.97 531.64
  L 528.76 538.01
  L 526.74 544.56
  L 526.06 546.19
  L 525.24 547.04
  L 524.26 547.33
  L 522.71 547.31
  L 521.41 547.25
  L 511.64 547.15
  L 501.87 547.23
  L 500.57 547.29
  L 499.02 547.31
  L 498.04 547.01
  L 497.22 546.16
  L 496.54 544.53
  L 494.53 537.98
  L 492.34 531.60
  L 489.96 525.39
  L 487.41 519.36
  L 484.68 513.49
  L 481.77 507.79
  L 478.67 502.27
  L 475.40 496.91
  L 469.70 488.37
  L 462.82 478.72
  L 454.76 467.99
  L 443.74 453.77
  L 432.55 439.27
  L 429.41 434.90
  L 426.46 430.43
  L 423.64 425.78
  L 421.00 421.04
  L 418.50 416.11
  L 416.19 411.08
  L 414.02 405.89
  L 412.05 400.62
  L 408.59 389.70
  L 405.83 378.34
  L 403.75 366.50
  L 402.39 354.31
  L 402.02 347.68
  L 402.06 341.48
  L 402.51 335.70
  L 403.37 330.37
  L 404.25 326.52
  L 405.40 322.41
  L 406.74 318.38
  L 408.31 314.35
  L 410.06 310.41
  L 412.01 306.55
  L 414.14 302.79
  L 416.44 299.14
  L 418.90 295.60
  L 421.58 292.12
  L 424.42 288.77
  L 427.41 285.55
  L 430.55 282.47
  L 433.87 279.49
  L 437.33 276.66
  L 440.92 273.98
  L 444.63 271.46
  L 450.10 268.22
  L 455.69 265.51
  L 461.41 263.31
  L 467.25 261.64
  L 467.25 261.64
  L 467.25 261.64
  L 471.71 260.73
  L 476.25 260.11
  L 480.86 259.79
  L 485.54 259.76
  L 511.90 259.99
  Z
  M 592.31 400.99
  L 594.50 394.82
  L 596.48 388.48
  L 598.25 382.01
  L 599.80 375.44
  L 601.12 368.77
  L 602.21 362.05
  L 603.07 355.28
  L 603.68 348.51
  L 603.76 342.23
  L 603.11 335.75
  L 601.74 329.24
  L 599.70 322.87
  L 596.95 316.54
  L 593.60 310.51
  L 589.70 304.88
  L 585.31 299.71
  L 581.00 295.43
  L 576.57 291.59
  L 572.05 288.21
  L 567.46 285.32
  L 562.75 282.86
  L 558.03 280.91
  L 553.15 279.40
  L 548.31 278.40
  L 542.05 278.04
  L 529.68 277.96
  L 482.50 277.99
  L 478.08 278.15
  L 473.77 278.66
  L 469.58 279.50
  L 465.50 280.69
  L 465.50 280.69
  L 465.50 280.69
  L 461.77 282.11
  L 458.15 283.84
  L 454.62 285.86
  L 451.20 288.19
  L 444.40 293.58
  L 438.98 298.74
  L 435.42 302.81
  L 432.22 307.06
  L 429.39 311.48
  L 426.92 316.09
  L 426.92 316.09
  L 425.20 319.93
  L 423.71 323.89
  L 422.46 327.96
  L 421.44 332.15
  L 420.54 337.82
  L 420.15 343.91
  L 420.26 350.43
  L 420.89 357.38
  L 422.90 370.69
  L 424.13 376.91
  L 425.53 382.91
  L 427.10 388.69
  L 428.84 394.22
  L 430.72 399.46
  L 432.76 404.42
  L 434.98 409.18
  L 437.32 413.62
  L 439.89 417.91
  L 442.57 421.87
  L 445.39 425.57
  L 448.43 429.08
  L 451.60 432.30
  L 454.98 435.32
  L 459.68 438.96
  L 464.73 442.33
  L 470.17 445.46
  L 475.86 448.26
  L 481.74 450.71
  L 487.76 452.79
  L 493.77 454.44
  L 499.82 455.69
  L 506.78 456.56
  L 513.73 456.76
  L 518.48 456.52
  L 523.23 455.96
  L 531.48 454.34
  L 539.48 452.00
  L 539.48 452.00
  L 544.30 450.19
  L 549.02 448.10
  L 553.64 445.73
  L 558.17 443.09
  L 563.82 439.25
  L 568.99 435.02
  L 573.68 430.47
  L 577.95 425.57
  L 581.86 420.28
  L 585.49 414.48
  L 589.72 406.71
  L 592.31 400.99
  Z
  M 511.79 531.91
  L 511.91 531.88
  L 512.06 531.73
  L 515.22 522.62
  L 518.79 513.74
  L 522.76 505.09
  L 527.13 496.68
  L 531.04 490.33
  L 538.62 478.76
  L 538.66 478.68
  L 538.64 478.32
  L 538.34 478.11
  L 535.41 477.81
  L 532.26 477.92
  L 521.07 478.78
  L 511.63 479.08
  L 502.18 478.84
  L 490.98 478.04
  L 487.83 477.96
  L 484.91 478.27
  L 484.61 478.49
  L 484.59 478.85
  L 484.63 478.92
  L 492.28 490.44
  L 496.23 496.77
  L 500.65 505.16
  L 504.68 513.78
  L 508.30 522.64
  L 511.51 531.73
  L 511.67 531.89
  L 511.79 531.91
  Z"
/>
<circle fill="#ffffff" cx="468.17" cy="298.48" r="7.09"/>
<ellipse fill="#ffffff" cx="0.00" cy="0.00" transform="translate(512.01,298.58) rotate(-89.8)" rx="7.27" ry="6.97"/>
<ellipse fill="#ffffff" cx="0.00" cy="0.00" transform="translate(533.87,298.57) rotate(-105.8)" rx="7.28" ry="7.07"/>
<ellipse fill="#ffffff" cx="0.00" cy="0.00" transform="translate(555.95,298.60) rotate(-83.0)" rx="7.25" ry="7.04"/>
<circle fill="#ffffff" cx="490.18" cy="298.75" r="7.06"/>
<circle fill="#ffffff" cx="446.21" cy="321.02" r="7.08"/>
<circle fill="#ffffff" cx="468.40" cy="321.10" r="7.23"/>
<circle fill="#ffffff" cx="490.16" cy="321.00" r="7.11"/>
<circle fill="#ffffff" cx="555.77" cy="321.01" r="7.07"/>
<ellipse fill="#ffffff" cx="0.00" cy="0.00" transform="translate(577.45,321.11) rotate(-92.8)" rx="7.24" ry="6.90"/>
<ellipse fill="#ffffff" cx="0.00" cy="0.00" transform="translate(511.91,320.97) rotate(-50.2)" rx="7.28" ry="6.98"/>
<circle fill="#ffffff" cx="533.75" cy="321.06" r="7.05"/>
<circle fill="#ffffff" cx="446.04" cy="343.33" r="7.11"/>
<circle fill="#ffffff" cx="511.89" cy="343.32" r="7.10"/>
<ellipse fill="#ffffff" cx="0.00" cy="0.00" transform="translate(533.75,343.51) rotate(-71.8)" rx="7.36" ry="7.19"/>
<ellipse fill="#ffffff" cx="0.00" cy="0.00" transform="translate(555.88,343.34) rotate(-108.8)" rx="7.24" ry="7.04"/>
<circle fill="#ffffff" cx="468.21" cy="343.59" r="7.24"/>
<circle fill="#ffffff" cx="490.29" cy="343.22" r="7.04"/>
<ellipse fill="#ffffff" cx="0.00" cy="0.00" transform="translate(577.49,343.25) rotate(-177.4)" rx="7.26" ry="6.93"/>
<ellipse fill="#ffffff" cx="0.00" cy="0.00" transform="translate(468.44,365.95) rotate(-156.2)" rx="7.20" ry="7.05"/>
<circle fill="#ffffff" cx="490.42" cy="365.69" r="6.96"/>
<circle fill="#ffffff" cx="577.27" cy="365.92" r="7.09"/>
<circle fill="#ffffff" cx="446.00" cy="365.70" r="7.01"/>
<circle fill="#ffffff" cx="512.00" cy="365.88" r="7.13"/>
<circle fill="#ffffff" cx="533.91" cy="365.90" r="7.15"/>
<ellipse fill="#ffffff" cx="0.00" cy="0.00" transform="translate(555.88,365.93) rotate(-60.6)" rx="7.28" ry="7.02"/>
<ellipse fill="#ffffff" cx="0.00" cy="0.00" transform="translate(511.94,388.43) rotate(-49.2)" rx="7.17" ry="6.99"/>
<circle fill="#ffffff" cx="577.09" cy="388.24" r="6.86"/>
<circle fill="#ffffff" cx="555.76" cy="388.54" r="7.04"/>
<ellipse fill="#ffffff" cx="0.00" cy="0.00" transform="translate(533.91,388.59) rotate(7.8)" rx="7.27" ry="7.06"/>
<circle fill="#ffffff" cx="474.09" cy="405.69" r="22.06"/>
<circle fill="#ffffff" cx="512.08" cy="411.08" r="7.04"/>
<circle fill="#ffffff" cx="533.83" cy="411.05" r="7.15"/>
<circle fill="#ffffff" cx="555.93" cy="410.75" r="7.08"/>
<circle fill="#ffffff" cx="533.83" cy="433.52" r="7.10"/>
<ellipse fill="#ffffff" cx="0.00" cy="0.00" transform="translate(511.79,433.54) rotate(-143.6)" rx="7.08" ry="6.81"/>
<path fill="#ffffff" d="
  M 497.96 558.41
  L 498.10 558.09
  L 498.43 557.96
  L 523.97 557.96
  L 524.87 558.32
  L 525.27 559.19
  L 526.90 589.42
  L 528.66 615.27
  L 529.36 619.73
  L 530.87 625.50
  L 531.82 629.70
  L 531.92 631.28
  L 531.77 632.51
  L 530.98 634.49
  L 529.88 635.82
  L 528.72 636.53
  L 527.16 636.99
  L 525.29 637.19
  L 522.53 637.21
  L 520.69 637.20
  L 497.52 637.03
  L 497.22 637.01
  L 496.13 636.81
  L 495.10 636.40
  L 494.09 635.76
  L 493.19 634.95
  L 491.76 632.86
  L 491.05 630.52
  L 491.33 628.50
  L 492.52 625.16
  L 493.88 620.82
  L 494.64 615.88
  L 495.79 601.37
  L 496.73 586.96
  L 497.45 572.64
  L 497.96 558.41
  Z"
/>
<path fill="#ffffff" d="
  M 374.01 704.97
  L 374.01 723.10
  L 373.86 723.61
  L 373.53 723.90
  L 373.10 724.01
  L 357.14 724.01
  L 356.33 723.68
  L 355.99 722.87
  L 355.99 653.89
  L 356.25 653.25
  L 356.88 652.98
  L 382.34 652.88
  L 386.58 653.03
  L 390.35 653.40
  L 393.65 653.99
  L 396.48 654.80
  L 399.34 655.98
  L 402.11 657.46
  L 404.58 659.14
  L 406.84 661.07
  L 408.69 663.08
  L 410.26 665.31
  L 411.46 667.61
  L 412.33 670.10
  L 412.68 671.66
  L 413.08 674.56
  L 413.25 677.41
  L 413.21 680.32
  L 412.94 683.03
  L 412.46 685.62
  L 411.79 687.93
  L 410.91 690.06
  L 409.80 692.04
  L 407.14 695.48
  L 404.04 698.29
  L 401.87 699.73
  L 399.42 700.98
  L 396.84 701.95
  L 393.98 702.73
  L 390.90 703.29
  L 387.49 703.67
  L 378.26 704.04
  L 374.85 704.11
  L 374.25 704.37
  L 374.01 704.97
  Z
  M 373.94 670.07
  L 374.08 686.97
  L 374.40 687.71
  L 375.14 688.01
  L 386.55 687.91
  L 388.42 687.71
  L 390.21 687.17
  L 391.85 686.31
  L 393.29 685.14
  L 394.47 683.74
  L 395.34 682.13
  L 395.86 680.40
  L 396.03 678.59
  L 396.03 678.05
  L 395.83 676.25
  L 395.27 674.53
  L 394.37 672.94
  L 393.17 671.55
  L 391.71 670.42
  L 390.05 669.58
  L 388.25 669.07
  L 386.39 668.91
  L 374.98 669.01
  L 374.24 669.32
  L 373.94 670.07
  Z"
/>
<path fill="#ffffff" d="
  M 480.92 723.07
  L 480.62 723.73
  L 479.95 724.00
  L 465.01 724.00
  L 463.89 723.66
  L 463.15 722.74
  L 458.60 711.39
  L 458.25 710.80
  L 457.75 710.33
  L 457.13 710.03
  L 456.45 709.93
  L 433.73 709.93
  L 432.87 710.06
  L 432.08 710.44
  L 431.44 711.04
  L 431.01 711.80
  L 426.88 722.51
  L 426.54 723.11
  L 426.03 723.58
  L 425.41 723.89
  L 424.73 723.99
  L 409.71 723.99
  L 409.70 723.99
  L 409.05 723.71
  L 408.80 723.05
  L 408.98 721.79
  L 409.43 720.42
  L 419.97 694.78
  L 426.74 677.74
  L 431.66 665.26
  L 435.72 655.54
  L 435.74 655.50
  L 436.47 654.09
  L 437.16 653.37
  L 438.11 652.99
  L 439.73 652.84
  L 452.74 652.96
  L 453.83 653.32
  L 454.55 654.22
  L 477.24 711.59
  L 477.74 712.85
  L 480.25 719.65
  L 480.78 721.70
  L 480.92 723.07
  Z
  M 438.21 693.59
  L 438.16 694.12
  L 438.35 694.62
  L 438.75 694.97
  L 439.27 695.09
  L 450.90 695.01
  L 451.42 694.88
  L 451.82 694.53
  L 452.00 694.03
  L 451.94 693.50
  L 446.02 677.76
  L 445.60 677.23
  L 444.96 677.03
  L 444.32 677.24
  L 443.92 677.77
  L 438.21 693.59
  Z"
/>
<path fill="#ffffff" d="
  M 484.93 654.11
  L 485.23 653.39
  L 485.96 653.08
  L 515.45 653.03
  L 518.62 653.18
  L 521.76 653.62
  L 524.84 654.36
  L 527.83 655.38
  L 530.70 656.69
  L 533.42 658.25
  L 535.98 660.07
  L 538.33 662.12
  L 540.47 664.38
  L 542.36 666.84
  L 544.00 669.46
  L 545.36 672.22
  L 546.43 675.10
  L 547.21 678.07
  L 547.68 681.09
  L 547.84 684.15
  L 547.86 692.81
  L 547.86 692.81
  L 547.71 695.86
  L 547.25 698.89
  L 546.48 701.86
  L 545.42 704.74
  L 544.06 707.51
  L 542.44 710.13
  L 540.55 712.59
  L 538.42 714.86
  L 536.08 716.92
  L 533.53 718.75
  L 530.81 720.32
  L 527.94 721.64
  L 524.96 722.67
  L 521.88 723.42
  L 518.74 723.88
  L 515.57 724.03
  L 486.08 724.08
  L 485.35 723.78
  L 485.05 723.05
  L 484.93 654.11
  Z
  M 502.97 670.35
  L 503.09 706.93
  L 503.38 707.71
  L 504.09 708.14
  L 504.34 708.16
  L 514.68 708.13
  L 517.70 707.82
  L 520.61 706.95
  L 523.29 705.54
  L 525.64 703.64
  L 527.56 701.33
  L 528.98 698.70
  L 529.86 695.85
  L 530.15 692.88
  L 530.11 684.20
  L 529.81 681.24
  L 528.91 678.39
  L 527.47 675.77
  L 525.53 673.48
  L 523.17 671.60
  L 520.49 670.20
  L 517.57 669.35
  L 514.54 669.07
  L 504.20 669.10
  L 503.33 669.47
  L 502.97 670.35
  Z"
/>
<path fill="#ffffff" d="
  M 573.99 697.10
  L 573.99 706.90
  L 574.31 707.67
  L 575.08 707.99
  L 608.60 707.99
  L 609.10 708.11
  L 609.52 708.50
  L 609.68 709.04
  L 610.14 722.88
  L 610.05 723.37
  L 609.65 723.84
  L 609.05 724.01
  L 558.10 724.01
  L 557.33 723.69
  L 557.01 722.92
  L 557.01 654.06
  L 557.33 653.29
  L 558.10 652.97
  L 607.85 652.97
  L 608.62 653.29
  L 608.94 654.06
  L 608.94 667.97
  L 608.62 668.74
  L 607.85 669.06
  L 575.10 669.06
  L 574.95 669.07
  L 574.28 669.44
  L 574.01 670.15
  L 574.01 680.02
  L 574.34 680.81
  L 575.14 681.11
  L 602.89 680.20
  L 603.57 680.41
  L 603.90 680.79
  L 604.02 681.29
  L 604.02 694.92
  L 603.88 695.46
  L 603.48 695.86
  L 602.93 696.01
  L 575.08 696.01
  L 574.35 696.29
  L 574.00 696.99
  L 573.99 697.10
  Z"
/>
<path fill="#ffffff" d="
  M 635.00 653.93
  L 635.00 707.03
  L 635.14 707.53
  L 635.52 707.89
  L 635.97 708.00
  L 667.06 708.00
  L 667.75 708.28
  L 668.03 708.97
  L 668.03 723.04
  L 667.94 723.45
  L 667.58 723.86
  L 667.06 724.01
  L 618.99 724.01
  L 618.30 723.73
  L 618.02 723.04
  L 618.02 653.93
  L 618.30 653.24
  L 618.99 652.96
  L 634.03 652.96
  L 634.72 653.24
  L 635.00 653.93
  Z"
/>
<path fill="#ffffff" d="
  M 395.9811 736.1209
  L 398.6476 736.5686
  L 401.1759 737.5378
  L 403.4687 738.9913
  L 405.4380 740.8732
  L 407.0081 743.1113
  L 408.1186 745.6195
  L 408.7270 748.3014
  L 408.8097 751.0539
  L 408.3636 753.7713
  L 407.4060 756.3492
  L 405.9734 758.6885
  L 404.1211 760.6992
  L 401.9202 762.3042
  L 399.4553 763.4417
  L 396.8211 764.0680
  L 394.1189 764.1591
  L 391.4524 763.7114
  L 388.9241 762.7422
  L 386.6313 761.2887
  L 384.6620 759.4068
  L 383.0919 757.1687
  L 381.9814 754.6605
  L 381.3730 751.9786
  L 381.2903 749.2261
  L 381.7364 746.5087
  L 382.6940 743.9308
  L 384.1266 741.5915
  L 385.9789 739.5808
  L 388.1798 737.9758
  L 390.6447 736.8383
  L 393.2789 736.2120
  L 395.9811 736.1209
  Z
  M 393.5909 740.1432
  L 391.7320 740.6069
  L 389.9998 741.4366
  L 388.4610 742.6004
  L 387.1746 744.0536
  L 386.1901 745.7402
  L 385.5453 747.5956
  L 385.2649 749.5484
  L 385.3599 751.5235
  L 385.8265 753.4450
  L 386.6467 755.2392
  L 387.7891 756.8370
  L 389.2098 758.1771
  L 390.8542 759.2079
  L 392.6590 759.8899
  L 394.5549 760.1968
  L 396.4691 760.1168
  L 398.3280 759.6531
  L 400.0602 758.8234
  L 401.5990 757.6596
  L 402.8854 756.2064
  L 403.8699 754.5198
  L 404.5147 752.6644
  L 404.7951 750.7116
  L 404.7001 748.7365
  L 404.2335 746.8150
  L 403.4133 745.0208
  L 402.2709 743.4230
  L 400.8502 742.0829
  L 399.2058 741.0521
  L 397.4010 740.3701
  L 395.5051 740.0632
  L 393.5909 740.1432
  Z"
/>
<path fill="#ffffff" d="
  M 475.59 744.21
  L 475.15 744.17
  L 474.87 744.50
  L 474.87 744.50
  L 474.85 744.64
  L 475.42 761.63
  L 475.17 762.63
  L 474.43 763.35
  L 474.13 763.50
  L 473.57 763.63
  L 473.01 763.52
  L 472.54 763.18
  L 472.26 762.68
  L 472.26 762.68
  L 472.22 762.48
  L 471.83 756.65
  L 471.67 752.97
  L 471.37 750.19
  L 470.97 745.27
  L 471.15 739.58
  L 471.48 738.07
  L 472.20 736.94
  L 472.20 736.94
  L 473.61 736.11
  L 474.27 736.07
  L 474.86 736.36
  L 477.91 739.50
  L 490.26 755.78
  L 490.62 755.94
  L 490.95 755.72
  L 490.99 755.54
  L 491.14 737.75
  L 491.14 737.66
  L 491.32 737.01
  L 491.74 736.47
  L 492.34 736.15
  L 493.02 736.09
  L 493.09 736.10
  L 493.85 736.32
  L 494.47 736.80
  L 494.88 737.48
  L 495.02 738.25
  L 494.91 761.98
  L 494.71 762.88
  L 494.15 763.61
  L 493.34 764.05
  L 492.43 764.11
  L 492.13 764.04
  L 491.20 763.61
  L 490.18 762.60
  L 484.47 754.68
  L 478.50 747.01
  L 476.96 745.31
  L 475.59 744.21
  Z"
/>
<path fill="#ffffff" d="
  M 507.16 756.24
  L 506.40 756.31
  L 505.91 756.89
  L 505.41 758.55
  L 504.46 761.25
  L 503.95 762.10
  L 503.29 762.80
  L 502.47 763.32
  L 501.42 763.69
  L 500.91 763.64
  L 500.54 763.28
  L 500.21 762.36
  L 500.15 761.19
  L 500.44 759.95
  L 504.06 750.92
  L 509.72 738.06
  L 510.52 736.80
  L 511.59 736.14
  L 512.84 736.22
  L 514.25 737.05
  L 515.65 738.54
  L 516.69 740.31
  L 525.56 761.29
  L 525.71 762.02
  L 525.57 762.76
  L 525.18 763.39
  L 524.57 763.83
  L 524.29 763.98
  L 523.58 764.17
  L 522.86 764.07
  L 522.23 763.69
  L 521.81 763.09
  L 521.81 763.09
  L 521.78 763.03
  L 519.87 758.25
  L 519.15 757.36
  L 518.06 757.02
  L 509.97 756.91
  L 508.78 756.73
  L 507.16 756.24
  Z
  M 512.72 753.10
  L 516.42 752.72
  L 516.54 752.69
  L 517.12 752.17
  L 517.12 751.39
  L 513.23 743.27
  L 512.68 742.34
  L 512.27 742.03
  L 511.88 742.37
  L 511.41 743.35
  L 508.19 751.75
  L 508.25 752.53
  L 508.88 753.00
  L 509.00 753.02
  L 512.72 753.10
  Z"
/>
<path fill="#ffffff" d="
  M 553.30 743.49
  L 550.42 748.04
  L 547.33 752.91
  L 545.99 754.53
  L 544.65 755.81
  L 544.08 756.11
  L 543.45 756.16
  L 542.84 755.96
  L 542.37 755.54
  L 542.37 755.54
  L 542.32 755.47
  L 534.60 743.88
  L 534.34 743.74
  L 534.09 743.90
  L 534.05 744.04
  L 533.87 762.15
  L 533.87 762.17
  L 533.72 762.84
  L 533.33 763.41
  L 532.74 763.77
  L 532.06 763.89
  L 532.01 763.89
  L 531.18 763.60
  L 530.50 763.04
  L 530.05 762.27
  L 529.90 761.40
  L 529.97 738.60
  L 530.17 737.67
  L 530.73 736.90
  L 531.56 736.43
  L 532.50 736.33
  L 532.50 736.33
  L 532.74 736.37
  L 534.01 736.89
  L 535.44 737.93
  L 536.24 738.86
  L 537.24 740.47
  L 540.56 745.91
  L 543.98 750.79
  L 544.27 750.94
  L 544.56 750.81
  L 544.61 750.74
  L 547.03 746.17
  L 550.12 740.87
  L 551.83 738.58
  L 554.07 736.48
  L 555.08 736.11
  L 556.10 736.43
  L 557.05 737.33
  L 557.63 738.37
  L 557.81 739.37
  L 558.02 749.28
  L 557.87 762.18
  L 557.71 762.90
  L 557.29 763.51
  L 556.67 763.92
  L 555.94 764.06
  L 555.40 764.06
  L 554.86 763.95
  L 554.41 763.65
  L 554.41 763.65
  L 554.11 763.20
  L 554.00 762.66
  L 554.00 743.72
  L 553.96 743.55
  L 553.65 743.33
  L 553.30 743.49
  Z"
/>
<path fill="#ffffff" d="
  M 665.94 740.79
  L 665.94 741.60
  L 665.90 741.91
  L 665.64 742.37
  L 665.21 742.67
  L 664.69 742.74
  L 664.19 742.58
  L 662.01 741.41
  L 659.84 740.58
  L 657.67 740.09
  L 655.50 739.93
  L 655.50 739.93
  L 655.50 739.93
  L 653.98 740.03
  L 652.61 740.28
  L 651.46 740.70
  L 650.52 741.28
  L 649.79 742.02
  L 649.31 742.85
  L 649.01 743.83
  L 649.03 744.36
  L 649.28 744.82
  L 650.79 746.17
  L 652.71 747.22
  L 655.12 748.01
  L 658.36 748.66
  L 661.38 749.32
  L 663.31 750.17
  L 664.91 751.27
  L 666.06 752.53
  L 666.82 754.00
  L 667.11 755.20
  L 667.15 756.51
  L 666.94 757.81
  L 666.50 759.19
  L 665.84 760.49
  L 664.97 761.58
  L 664.97 761.58
  L 664.97 761.58
  L 663.12 762.90
  L 660.74 763.68
  L 656.01 764.19
  L 653.71 764.14
  L 651.66 763.88
  L 649.85 763.43
  L 648.16 762.77
  L 646.76 761.93
  L 645.53 760.87
  L 645.04 759.92
  L 645.13 758.86
  L 645.53 757.82
  L 645.87 757.33
  L 646.39 757.04
  L 646.98 757.01
  L 647.53 757.25
  L 647.78 757.50
  L 648.75 758.44
  L 650.16 759.29
  L 652.00 760.02
  L 654.27 760.66
  L 656.93 760.94
  L 658.14 760.80
  L 659.28 760.46
  L 659.28 760.46
  L 660.98 759.48
  L 662.48 757.98
  L 662.88 757.24
  L 663.00 756.39
  L 662.83 755.51
  L 662.40 754.72
  L 661.62 753.96
  L 660.44 753.24
  L 659.06 752.70
  L 657.74 752.43
  L 653.55 751.73
  L 650.25 750.65
  L 647.78 749.17
  L 646.82 748.27
  L 646.01 747.21
  L 645.42 746.11
  L 645.14 745.26
  L 645.01 743.95
  L 645.22 742.65
  L 645.75 741.29
  L 646.55 740.01
  L 647.69 738.74
  L 649.01 737.67
  L 650.43 736.87
  L 651.87 736.39
  L 655.24 735.96
  L 658.51 736.14
  L 661.45 736.85
  L 664.31 738.08
  L 664.98 738.56
  L 665.50 739.21
  L 665.83 739.97
  L 665.94 740.79
  Z"
/>
<path fill="#ffffff" d="
  M 434.83 736.46
  L 435.74 736.46
  L 436.45 736.75
  L 436.76 737.46
  L 436.90 747.48
  L 436.82 756.00
  L 436.39 758.27
  L 435.67 759.66
  L 434.67 760.86
  L 433.32 761.95
  L 431.77 762.81
  L 429.92 763.52
  L 427.82 764.01
  L 425.72 764.21
  L 423.80 764.12
  L 420.97 763.44
  L 418.57 762.15
  L 418.57 762.15
  L 418.57 762.15
  L 417.15 760.87
  L 415.94 759.30
  L 414.96 757.41
  L 414.20 755.23
  L 414.14 754.79
  L 414.00 737.68
  L 414.01 737.49
  L 414.21 736.93
  L 414.62 736.50
  L 415.18 736.29
  L 415.77 736.32
  L 416.08 736.40
  L 416.85 736.70
  L 417.47 737.24
  L 417.87 737.96
  L 418.00 738.77
  L 417.91 743.12
  L 417.84 748.54
  L 418.02 752.10
  L 418.51 755.13
  L 419.35 757.71
  L 419.74 758.29
  L 420.30 758.71
  L 421.87 759.36
  L 423.63 759.84
  L 425.38 760.08
  L 427.12 760.10
  L 428.57 759.89
  L 429.89 759.46
  L 430.96 758.84
  L 431.83 757.98
  L 432.63 756.33
  L 432.85 754.37
  L 433.13 738.13
  L 433.27 737.49
  L 433.64 736.95
  L 434.19 736.59
  L 434.83 736.46
  Z"
/>
<path fill="#ffffff" d="
  M 594.99 744.90
  L 594.98 761.70
  L 594.86 762.42
  L 594.50 763.06
  L 593.94 763.54
  L 593.26 763.81
  L 593.13 763.84
  L 592.46 763.88
  L 591.84 763.64
  L 591.37 763.16
  L 591.14 762.54
  L 591.14 762.54
  L 591.13 762.33
  L 591.00 738.10
  L 591.15 737.51
  L 591.56 737.05
  L 592.76 736.46
  L 593.89 736.37
  L 593.89 736.37
  L 594.93 736.79
  L 595.90 737.71
  L 609.74 756.06
  L 610.12 756.23
  L 610.46 755.98
  L 610.46 755.98
  L 610.49 755.77
  L 610.31 752.09
  L 610.55 748.79
  L 610.77 746.15
  L 610.38 741.75
  L 610.10 739.62
  L 610.14 738.76
  L 610.48 737.97
  L 611.06 737.34
  L 611.82 736.94
  L 612.13 736.83
  L 612.76 736.75
  L 613.37 736.94
  L 613.84 737.36
  L 614.08 737.95
  L 614.10 738.20
  L 614.10 762.70
  L 614.07 762.99
  L 613.81 763.56
  L 613.33 763.97
  L 612.72 764.13
  L 612.10 764.01
  L 610.08 762.70
  L 608.16 760.58
  L 596.45 744.43
  L 596.16 744.18
  L 595.77 744.09
  L 595.38 744.21
  L 595.09 744.51
  L 594.99 744.90
  Z"
/>
<path fill="#ffffff" d="
  M 626.91 740.00
  L 620.22 740.00
  L 619.42 739.63
  L 619.19 738.77
  L 619.24 738.59
  L 619.54 737.83
  L 619.97 737.10
  L 620.60 736.55
  L 621.39 736.24
  L 622.23 736.19
  L 631.16 736.77
  L 635.15 736.74
  L 638.82 736.48
  L 639.68 736.53
  L 640.48 736.85
  L 641.14 737.40
  L 641.58 738.14
  L 641.64 738.29
  L 641.72 738.55
  L 641.72 739.29
  L 641.41 739.96
  L 640.84 740.44
  L 640.13 740.64
  L 632.99 741.05
  L 632.15 741.45
  L 631.82 742.32
  L 632.25 761.00
  L 632.13 761.88
  L 631.76 762.68
  L 631.17 763.34
  L 630.41 763.79
  L 630.37 763.81
  L 630.08 763.88
  L 629.31 763.84
  L 628.63 763.48
  L 628.16 762.86
  L 628.00 762.11
  L 628.05 741.15
  L 627.72 740.34
  L 626.91 740.00
  L 626.91 740.00
  Z"
/>
<path fill="#ffffff" d="
  M 379.12 737.68
  L 378.74 738.76
  L 378.16 739.59
  L 377.00 740.41
  L 375.34 740.85
  L 373.17 740.89
  L 370.37 740.53
  L 369.95 740.59
  L 369.66 740.90
  L 369.06 742.55
  L 368.87 744.01
  L 368.92 762.52
  L 368.78 763.14
  L 368.40 763.66
  L 367.84 763.97
  L 367.20 764.03
  L 367.04 764.00
  L 366.79 763.95
  L 366.07 763.68
  L 365.48 763.18
  L 365.10 762.51
  L 364.97 761.75
  L 364.97 742.01
  L 364.71 741.36
  L 364.07 741.07
  L 358.10 740.59
  L 357.19 740.35
  L 356.46 739.88
  L 356.00 739.25
  L 355.91 738.57
  L 355.91 738.54
  L 356.06 738.10
  L 356.82 737.46
  L 358.20 737.16
  L 367.84 736.81
  L 378.73 737.16
  L 378.76 737.16
  L 379.05 737.34
  L 379.12 737.68
  Z"
/>
<path fill="#ffffff" d="
  M 460.38 754.22
  L 464.55 761.03
  L 464.79 761.68
  L 464.78 762.38
  L 464.52 763.02
  L 464.03 763.51
  L 463.99 763.54
  L 463.26 763.82
  L 462.47 763.81
  L 461.76 763.49
  L 461.22 762.92
  L 461.21 762.91
  L 456.43 755.27
  L 455.55 754.38
  L 454.37 753.97
  L 451.53 753.87
  L 448.87 754.19
  L 448.40 754.47
  L 448.20 754.97
  L 447.86 762.31
  L 447.85 762.44
  L 447.62 763.10
  L 447.14 763.62
  L 446.50 763.90
  L 445.80 763.90
  L 445.78 763.90
  L 445.08 763.64
  L 444.50 763.16
  L 444.13 762.51
  L 444.00 761.77
  L 444.09 737.94
  L 444.40 737.19
  L 445.15 736.87
  L 457.77 736.88
  L 459.49 737.03
  L 461.02 737.42
  L 462.35 738.04
  L 463.48 738.86
  L 464.67 740.25
  L 465.51 741.94
  L 466.00 743.91
  L 466.13 746.12
  L 465.97 747.49
  L 465.59 748.65
  L 465.02 749.62
  L 464.15 750.61
  L 461.46 752.63
  L 460.59 753.22
  L 460.29 753.68
  L 460.38 754.22
  Z
  M 448.07 741.62
  L 447.99 748.44
  L 448.10 749.03
  L 448.42 749.53
  L 448.92 749.87
  L 449.50 749.99
  L 457.22 750.09
  L 459.09 749.79
  L 460.69 748.89
  L 461.77 747.54
  L 462.16 745.93
  L 462.16 745.93
  L 462.16 745.93
  L 462.18 744.49
  L 462.18 744.49
  L 461.83 742.87
  L 460.78 741.49
  L 459.21 740.55
  L 457.34 740.21
  L 449.62 740.11
  L 449.03 740.22
  L 448.53 740.55
  L 448.20 741.04
  L 448.07 741.62
  Z"
/>
<path fill="#ffffff" d="
  M 569.03 752.25
  L 568.88 752.41
  L 569.12 759.74
  L 569.25 759.87
  L 584.00 760.11
  L 584.67 760.25
  L 585.24 760.63
  L 585.62 761.20
  L 585.76 761.87
  L 585.77 762.12
  L 585.78 762.21
  L 585.68 762.87
  L 585.32 763.44
  L 584.77 763.82
  L 584.11 763.96
  L 566.78 763.98
  L 566.13 763.85
  L 565.57 763.48
  L 565.20 762.93
  L 565.07 762.28
  L 565.07 762.28
  L 565.07 737.80
  L 565.07 737.80
  L 565.36 737.11
  L 566.05 736.83
  L 583.95 736.98
  L 584.44 737.09
  L 584.86 737.38
  L 585.12 737.81
  L 585.18 738.31
  L 585.17 738.40
  L 585.14 738.76
  L 584.79 739.50
  L 584.04 739.82
  L 570.00 740.28
  L 569.30 740.60
  L 569.01 741.31
  L 569.01 746.76
  L 569.38 747.66
  L 570.27 748.03
  L 570.27 748.03
  L 570.27 748.03
  L 581.07 748.03
  L 581.85 748.18
  L 582.52 748.61
  L 582.98 749.27
  L 583.16 750.04
  L 583.18 750.75
  L 582.90 751.49
  L 582.19 751.81
  L 569.03 752.25
  Z"
/>
</svg>
